<svg width="44" height="37" viewBox="0 0 44 37" fill="none" xmlns="http://www.w3.org/2000/svg">
<path d="M14.2582 36.5136C30.5813 36.5136 39.5118 22.7 39.5118 10.7424C39.5118 10.354 39.5118 9.96554 39.4945 9.57711C41.2336 8.29115 42.7343 6.6993 43.9262 4.8762C42.3033 5.6079 40.5832 6.09057 38.8219 6.30854C40.6777 5.17478 42.0672 3.39225 42.7323 1.29202C40.988 2.34798 39.0783 3.08935 37.0872 3.48358C36.2584 2.57998 35.2566 1.85968 34.1438 1.36729C33.031 0.874907 31.831 0.620929 30.6181 0.621094C28.2633 0.622848 26.0055 1.57815 24.3404 3.27722C22.6753 4.97628 21.7391 7.28021 21.7374 9.68305C21.7374 10.3893 21.8239 11.0779 21.9623 11.7488C18.4323 11.5679 14.979 10.6315 11.8267 9.00035C8.67436 7.3692 5.89345 5.07979 3.66451 2.28076C2.53178 4.27711 2.186 6.6385 2.69735 8.88553C3.20871 11.1326 4.53889 13.0968 6.41784 14.3796C5.00998 14.3298 3.63334 13.9427 2.39924 13.2496V13.3732C2.40114 15.4639 3.11023 17.4898 4.40672 19.1087C5.70321 20.7276 7.50761 21.8402 9.51506 22.2586C8.75427 22.4727 7.96835 22.5796 7.17916 22.5764C6.60601 22.5764 6.05231 22.5234 5.51376 22.4175C6.07964 24.2179 7.18352 25.7925 8.67063 26.9205C10.1577 28.0485 11.9535 28.6734 13.8062 28.7074C10.6626 31.229 6.77853 32.5973 2.7799 32.5917C2.07048 32.5917 1.36106 32.5564 0.668945 32.4681C4.72801 35.1112 9.4431 36.5149 14.2582 36.5136" fill="#89ADB8"/>
</svg>
