<svg width="51" height="36" viewBox="0 0 51 36" fill="none" xmlns="http://www.w3.org/2000/svg">
<path d="M49.6908 5.56426C49.4019 4.4883 48.8355 3.5071 48.0482 2.71884C47.261 1.93058 46.2805 1.36291 45.2049 1.07266C41.2457 0.00781272 25.375 0.0078125 25.375 0.0078125C25.375 0.0078125 9.5043 0.00781228 5.54512 1.06699C4.46906 1.35631 3.48807 1.92366 2.70066 2.71206C1.91325 3.50047 1.34714 4.48217 1.05918 5.55859C-2.16067e-07 9.52344 0 17.793 0 17.793C0 17.793 -2.16067e-07 26.0625 1.05918 30.0217C1.64258 32.208 3.36445 33.9299 5.54512 34.5133C9.5043 35.5781 25.375 35.5781 25.375 35.5781C25.375 35.5781 41.2457 35.5781 45.2049 34.5133C47.3912 33.9299 49.1074 32.208 49.6908 30.0217C50.75 26.0625 50.75 17.793 50.75 17.793C50.75 17.793 50.75 9.52344 49.6908 5.56426ZM20.334 25.3828V10.2031L33.4746 17.7363L20.334 25.3828Z" fill="#89ADB8"/>
</svg>
