<svg width="25" height="41" viewBox="0 0 25 41" fill="none" xmlns="http://www.w3.org/2000/svg">
<path d="M24.8942 1.51743C24.8942 1.22476 24.778 0.944084 24.571 0.737137C24.3641 0.53019 24.0834 0.413929 23.7907 0.413929H18.2732C15.4949 0.275529 12.7747 1.24242 10.707 3.10334C8.63931 4.96426 7.39221 7.56792 7.2382 10.3454V16.3044H1.72069C1.42802 16.3044 1.14734 16.4206 0.940396 16.6276C0.733449 16.8345 0.617188 17.1152 0.617188 17.4079V23.1461C0.617188 23.4387 0.733449 23.7194 0.940396 23.9264C1.14734 24.1333 1.42802 24.2496 1.72069 24.2496H7.2382V39.0365C7.2382 39.3291 7.35446 39.6098 7.5614 39.8168C7.76835 40.0237 8.04903 40.14 8.3417 40.14H14.9627C15.2554 40.14 15.5361 40.0237 15.743 39.8168C15.95 39.6098 16.0662 39.3291 16.0662 39.0365V24.2496H21.8486C22.094 24.2531 22.3335 24.1747 22.5294 24.0268C22.7252 23.8789 22.8662 23.67 22.93 23.433L24.519 17.6948C24.5629 17.5317 24.5688 17.3608 24.5363 17.1951C24.5037 17.0294 24.4336 16.8734 24.3312 16.7391C24.2289 16.6048 24.0971 16.4957 23.946 16.4203C23.7949 16.345 23.6285 16.3053 23.4597 16.3044H16.0662V10.3454C16.1211 9.79916 16.3777 9.29295 16.7857 8.92566C17.1938 8.55838 17.7242 8.35639 18.2732 8.35914H23.7907C24.0834 8.35914 24.3641 8.24288 24.571 8.03593C24.778 7.82898 24.8942 7.5483 24.8942 7.25564V1.51743Z" fill="#89ADB8"/>
</svg>
