<svg width="50" height="49" viewBox="0 0 50 49" fill="none" xmlns="http://www.w3.org/2000/svg">
<path fill-rule="evenodd" clip-rule="evenodd" d="M14.7273 0.145662C17.3161 0.026484 18.1415 0 24.736 0C31.3305 0 32.156 0.028691 34.7426 0.145662C37.3292 0.262633 39.0948 0.675343 40.6397 1.27344C42.2574 1.88478 43.7251 2.84041 44.9389 4.07633C46.1749 5.28798 47.1283 6.75343 47.7374 8.37337C48.3377 9.91827 48.7482 11.6839 48.8674 14.2661C48.9866 16.8593 49.0131 17.6847 49.0131 24.277C49.0131 30.8716 48.9844 31.697 48.8674 34.2858C48.7504 36.868 48.3377 38.6336 47.7374 40.1785C47.1283 41.7986 46.1733 43.2665 44.9389 44.4799C43.7251 45.7159 42.2574 46.6693 40.6397 47.2784C39.0948 47.8787 37.3292 48.2892 34.747 48.4084C32.156 48.5276 31.3305 48.5541 24.736 48.5541C18.1415 48.5541 17.3161 48.5254 14.7273 48.4084C12.1451 48.2914 10.3795 47.8787 8.83456 47.2784C7.21445 46.6692 5.74657 45.7142 4.53311 44.4799C3.29803 43.2676 2.34225 41.8004 1.73243 40.1807C1.13433 38.6358 0.723825 36.8702 0.604647 34.288C0.485468 31.6948 0.458984 30.8694 0.458984 24.277C0.458984 17.6825 0.487675 16.8571 0.604647 14.2705C0.721618 11.6839 1.13433 9.91827 1.73243 8.37337C2.34315 6.75361 3.29966 5.28646 4.53532 4.07413C5.74705 2.83931 7.21346 1.88355 8.83236 1.27344C10.3773 0.675343 12.1429 0.26484 14.7251 0.145662H14.7273ZM34.5462 4.51553C31.986 4.39856 31.218 4.37428 24.736 4.37428C18.2541 4.37428 17.486 4.39856 14.9259 4.51553C12.5578 4.62367 11.2733 5.01873 10.417 5.35198C9.28479 5.79338 8.47482 6.31644 7.62512 7.16614C6.81967 7.94974 6.1998 8.90367 5.81097 9.958C5.47771 10.8143 5.08266 12.0988 4.97451 14.4669C4.85754 17.027 4.83327 17.7951 4.83327 24.277C4.83327 30.759 4.85754 31.527 4.97451 34.0872C5.08266 36.4553 5.47771 37.7398 5.81097 38.5961C6.1994 39.6488 6.81957 40.6044 7.62512 41.3879C8.40861 42.1935 9.36424 42.8137 10.417 43.2021C11.2733 43.5353 12.5578 43.9304 14.9259 44.0385C17.486 44.1555 18.2518 44.1798 24.736 44.1798C31.2202 44.1798 31.986 44.1555 34.5462 44.0385C36.9143 43.9304 38.1987 43.5353 39.0551 43.2021C40.1873 42.7607 40.9972 42.2376 41.8469 41.3879C42.6525 40.6044 43.2726 39.6488 43.6611 38.5961C43.9943 37.7398 44.3894 36.4553 44.4975 34.0872C44.6145 31.527 44.6388 30.759 44.6388 24.277C44.6388 17.7951 44.6145 17.027 44.4975 14.4669C44.3894 12.0988 43.9943 10.8143 43.6611 9.958C43.2197 8.82581 42.6966 8.01584 41.8469 7.16614C41.0633 6.36074 40.1094 5.74088 39.0551 5.35198C38.1987 5.01873 36.9143 4.62367 34.5462 4.51553V4.51553ZM21.6352 31.761C23.3669 32.4819 25.2952 32.5792 27.0907 32.0362C28.8862 31.4933 30.4376 30.3439 31.4798 28.7843C32.5219 27.2246 32.9903 25.3516 32.8049 23.485C32.6195 21.6183 31.7918 19.874 30.4632 18.5499C29.6162 17.7034 28.5921 17.0553 27.4646 16.6522C26.3371 16.249 25.1342 16.1009 23.9426 16.2184C22.751 16.336 21.6002 16.7162 20.5732 17.3319C19.5462 17.9475 18.6684 18.7832 18.0031 19.7788C17.3378 20.7744 16.9016 21.9051 16.7257 23.0896C16.5499 24.274 16.6389 25.4827 16.9862 26.6286C17.3336 27.7746 17.9307 28.8292 18.7346 29.7167C19.5384 30.6041 20.5291 31.3023 21.6352 31.761ZM15.9124 15.4534C17.0712 14.2947 18.4468 13.3756 19.9607 12.7484C21.4747 12.1213 23.0973 11.7986 24.736 11.7986C26.3747 11.7986 27.9974 12.1213 29.5113 12.7484C31.0253 13.3755 32.4009 14.2947 33.5596 15.4534C34.7184 16.6122 35.6375 17.9878 36.2646 19.5017C36.8917 21.0157 37.2145 22.6383 37.2145 24.277C37.2145 25.9157 36.8917 27.5384 36.2646 29.0523C35.6375 30.5663 34.7184 31.9419 33.5596 33.1006C31.2195 35.4408 28.0455 36.7555 24.736 36.7555C21.4265 36.7555 18.2526 35.4408 15.9124 33.1006C13.5723 30.7605 12.2576 27.5865 12.2576 24.277C12.2576 20.9675 13.5723 17.7936 15.9124 15.4534V15.4534ZM39.982 13.6569C40.2691 13.3861 40.499 13.0603 40.658 12.699C40.817 12.3377 40.9019 11.9482 40.9077 11.5535C40.9134 11.1588 40.8399 10.767 40.6915 10.4012C40.5431 10.0354 40.3228 9.70311 40.0437 9.42399C39.7646 9.14487 39.4323 8.92459 39.0665 8.77619C38.7007 8.62779 38.3089 8.55429 37.9142 8.56005C37.5195 8.5658 37.13 8.65069 36.7687 8.80969C36.4074 8.96869 36.0816 9.19856 35.8108 9.4857C35.284 10.0441 34.9956 10.7859 35.0068 11.5535C35.0179 12.3211 35.3279 13.0542 35.8707 13.597C36.4135 14.1398 37.1466 14.4498 37.9142 14.4609C38.6818 14.4721 39.4236 14.1837 39.982 13.6569V13.6569Z" fill="#89ADB8"/>
</svg>
