<svg width="190" height="64" viewBox="0 0 190 64" fill="none" xmlns="http://www.w3.org/2000/svg">
<path d="M0 15C0 6.71573 6.71573 0 15 0H175C183.284 0 190 6.71573 190 15V49C190 57.2843 183.284 64 175 64H15C6.71573 64 0 57.2843 0 49V15Z" fill="#222526"/>
<path d="M88.402 18.5C88.2692 18.0935 88.0941 17.7293 87.8768 17.4073C87.6635 17.0813 87.4079 16.8036 87.1101 16.5742C86.8163 16.3448 86.4822 16.1697 86.108 16.049C85.7337 15.9283 85.3232 15.8679 84.8764 15.8679C84.1439 15.8679 83.4779 16.0571 82.8782 16.4354C82.2785 16.8137 81.8016 17.3711 81.4474 18.1076C81.0933 18.8441 80.9162 19.7476 80.9162 20.8182C80.9162 21.8887 81.0953 22.7923 81.4535 23.5288C81.8117 24.2653 82.2966 24.8227 82.9084 25.201C83.5201 25.5793 84.2083 25.7685 84.973 25.7685C85.6813 25.7685 86.3052 25.6175 86.8445 25.3157C87.3878 25.0098 87.8104 24.5792 88.1122 24.0238C88.4181 23.4644 88.571 22.8063 88.571 22.0497L89.0298 22.1463H85.3111V20.8182H90.0199V22.1463C90.0199 23.1645 89.8026 24.05 89.3679 24.8026C88.9373 25.5552 88.3416 26.1387 87.581 26.5533C86.8243 26.9638 85.955 27.169 84.973 27.169C83.8783 27.169 82.9164 26.9115 82.0874 26.3963C81.2623 25.8812 80.6184 25.1487 80.1555 24.1989C79.6967 23.2491 79.4673 22.1222 79.4673 20.8182C79.4673 19.8402 79.5981 18.9608 79.8597 18.18C80.1254 17.3952 80.4996 16.7272 80.9826 16.1758C81.4656 15.6244 82.0371 15.2018 82.6971 14.908C83.3571 14.6142 84.0836 14.4673 84.8764 14.4673C85.5284 14.4673 86.1361 14.5659 86.6996 14.7631C87.267 14.9563 87.7721 15.232 88.2148 15.5902C88.6616 15.9444 89.0339 16.369 89.3317 16.864C89.6295 17.355 89.8348 17.9003 89.9474 18.5H88.402ZM96.2787 27.1932C95.3852 27.1932 94.6145 26.996 93.9665 26.6016C93.3226 26.2031 92.8256 25.6477 92.4754 24.9354C92.1293 24.219 91.9562 23.3859 91.9562 22.4361C91.9562 21.4863 92.1293 20.6491 92.4754 19.9247C92.8256 19.1963 93.3125 18.6288 93.9363 18.2223C94.5642 17.8118 95.2967 17.6065 96.1338 17.6065C96.6167 17.6065 97.0937 17.687 97.5645 17.848C98.0354 18.009 98.464 18.2706 98.8504 18.6328C99.2368 18.991 99.5447 19.4659 99.7741 20.0575C100.003 20.6491 100.118 21.3776 100.118 22.2429V22.8466H92.9704V21.6151H98.6693C98.6693 21.0919 98.5647 20.625 98.3554 20.2145C98.1501 19.804 97.8563 19.48 97.474 19.2425C97.0957 19.0051 96.6489 18.8864 96.1338 18.8864C95.5663 18.8864 95.0753 19.0272 94.6608 19.3089C94.2503 19.5866 93.9343 19.9489 93.713 20.3956C93.4916 20.8423 93.3809 21.3213 93.3809 21.8324V22.6534C93.3809 23.3537 93.5017 23.9473 93.7432 24.4343C93.9887 24.9173 94.3287 25.2855 94.7634 25.5391C95.1981 25.7886 95.7032 25.9134 96.2787 25.9134C96.653 25.9134 96.991 25.861 97.2929 25.7564C97.5988 25.6477 97.8624 25.4867 98.0837 25.2734C98.3051 25.0561 98.4761 24.7865 98.5969 24.4645L99.9733 24.8509C99.8284 25.3177 99.5849 25.7282 99.2428 26.0824C98.9007 26.4325 98.4781 26.7062 97.9751 26.9034C97.472 27.0966 96.9065 27.1932 96.2787 27.1932ZM106.318 17.7273V18.9347H101.513V17.7273H106.318ZM102.913 15.5057H104.338V24.3438C104.338 24.7462 104.396 25.0481 104.513 25.2493C104.634 25.4465 104.787 25.5793 104.972 25.6477C105.161 25.7121 105.36 25.7443 105.57 25.7443C105.726 25.7443 105.855 25.7363 105.956 25.7202C106.056 25.7 106.137 25.6839 106.197 25.6719L106.487 26.9517C106.391 26.9879 106.256 27.0241 106.083 27.0604C105.91 27.1006 105.69 27.1207 105.425 27.1207C105.022 27.1207 104.628 27.0342 104.241 26.8612C103.859 26.6881 103.541 26.4245 103.288 26.0703C103.038 25.7161 102.913 25.2694 102.913 24.7301V15.5057ZM113.242 27V17.7273H114.667V27H113.242ZM113.967 16.1818C113.689 16.1818 113.45 16.0872 113.248 15.8981C113.051 15.7089 112.953 15.4815 112.953 15.2159C112.953 14.9503 113.051 14.7229 113.248 14.5337C113.45 14.3446 113.689 14.25 113.967 14.25C114.245 14.25 114.482 14.3446 114.679 14.5337C114.88 14.7229 114.981 14.9503 114.981 15.2159C114.981 15.4815 114.88 15.7089 114.679 15.8981C114.482 16.0872 114.245 16.1818 113.967 16.1818ZM121.309 17.7273V18.9347H116.504V17.7273H121.309ZM117.904 15.5057H119.329V24.3438C119.329 24.7462 119.388 25.0481 119.504 25.2493C119.625 25.4465 119.778 25.5793 119.963 25.6477C120.152 25.7121 120.351 25.7443 120.561 25.7443C120.718 25.7443 120.846 25.7363 120.947 25.7202C121.048 25.7 121.128 25.6839 121.189 25.6719L121.478 26.9517C121.382 26.9879 121.247 27.0241 121.074 27.0604C120.901 27.1006 120.681 27.1207 120.416 27.1207C120.013 27.1207 119.619 27.0342 119.233 26.8612C118.85 26.6881 118.532 26.4245 118.279 26.0703C118.029 25.7161 117.904 25.2694 117.904 24.7301V15.5057ZM132.001 27.1932C131.164 27.1932 130.429 26.994 129.797 26.5955C129.169 26.1971 128.678 25.6397 128.324 24.9233C127.974 24.2069 127.799 23.3698 127.799 22.4119C127.799 21.446 127.974 20.6029 128.324 19.8825C128.678 19.162 129.169 18.6026 129.797 18.2042C130.429 17.8058 131.164 17.6065 132.001 17.6065C132.838 17.6065 133.57 17.8058 134.198 18.2042C134.83 18.6026 135.321 19.162 135.671 19.8825C136.025 20.6029 136.202 21.446 136.202 22.4119C136.202 23.3698 136.025 24.2069 135.671 24.9233C135.321 25.6397 134.83 26.1971 134.198 26.5955C133.57 26.994 132.838 27.1932 132.001 27.1932ZM132.001 25.9134C132.637 25.9134 133.16 25.7504 133.57 25.4244C133.981 25.0984 134.285 24.6697 134.482 24.1385C134.679 23.6072 134.778 23.0317 134.778 22.4119C134.778 21.7921 134.679 21.2146 134.482 20.6793C134.285 20.1441 133.981 19.7114 133.57 19.3814C133.16 19.0514 132.637 18.8864 132.001 18.8864C131.365 18.8864 130.842 19.0514 130.431 19.3814C130.021 19.7114 129.717 20.1441 129.52 20.6793C129.322 21.2146 129.224 21.7921 129.224 22.4119C129.224 23.0317 129.322 23.6072 129.52 24.1385C129.717 24.6697 130.021 25.0984 130.431 25.4244C130.842 25.7504 131.365 25.9134 132.001 25.9134ZM139.802 21.4219V27H138.377V17.7273H139.754V19.1761H139.874C140.092 18.7053 140.422 18.3269 140.864 18.0412C141.307 17.7514 141.879 17.6065 142.579 17.6065C143.207 17.6065 143.756 17.7353 144.227 17.9929C144.698 18.2464 145.064 18.6328 145.326 19.152C145.587 19.6671 145.718 20.3191 145.718 21.108V27H144.293V21.2045C144.293 20.4761 144.104 19.9086 143.726 19.5021C143.348 19.0916 142.828 18.8864 142.168 18.8864C141.714 18.8864 141.307 18.985 140.949 19.1822C140.595 19.3794 140.315 19.6671 140.11 20.0455C139.905 20.4238 139.802 20.8826 139.802 21.4219ZM79.25 48V35.6364H84.5866C85.5043 35.6364 86.3072 35.8175 86.9954 36.1797C87.6836 36.5419 88.2189 37.051 88.6012 37.707C88.9835 38.363 89.1747 39.1297 89.1747 40.0071C89.1747 40.8925 88.9775 41.6592 88.5831 42.3072C88.1927 42.9551 87.6433 43.4542 86.935 43.8043C86.2307 44.1545 85.4077 44.3295 84.4659 44.3295H81.2784V41.7216H83.7898C84.1842 41.7216 84.5202 41.6532 84.7979 41.5163C85.0797 41.3755 85.295 41.1763 85.4439 40.9187C85.5968 40.6611 85.6733 40.3572 85.6733 40.0071C85.6733 39.6529 85.5968 39.3511 85.4439 39.1016C85.295 38.848 85.0797 38.6548 84.7979 38.522C84.5202 38.3852 84.1842 38.3168 83.7898 38.3168H82.6065V48H79.25ZM93.7869 35.6364V48H90.4545V35.6364H93.7869ZM98.0686 48.1449C97.477 48.1449 96.9538 48.0483 96.499 47.8551C96.0483 47.6579 95.6941 47.3601 95.4365 46.9616C95.1789 46.5632 95.0502 46.0561 95.0502 45.4403C95.0502 44.9332 95.1367 44.5006 95.3097 44.1424C95.4828 43.7802 95.7243 43.4844 96.0342 43.255C96.3441 43.0256 96.7043 42.8505 97.1148 42.7298C97.5293 42.609 97.9761 42.5305 98.455 42.4943C98.9742 42.4541 99.3907 42.4058 99.7046 42.3494C100.023 42.2891 100.252 42.2066 100.393 42.1019C100.534 41.9933 100.604 41.8504 100.604 41.6733V41.6491C100.604 41.4077 100.512 41.2225 100.326 41.0938C100.141 40.965 99.9039 40.9006 99.6141 40.9006C99.2961 40.9006 99.0365 40.971 98.8353 41.1119C98.6381 41.2487 98.5194 41.46 98.4791 41.7457H95.4124C95.4526 41.1823 95.6317 40.6631 95.9497 40.1882C96.2716 39.7093 96.7405 39.3269 97.3563 39.0412C97.972 38.7514 98.7407 38.6065 99.6624 38.6065C100.326 38.6065 100.922 38.685 101.449 38.842C101.977 38.9949 102.425 39.2102 102.796 39.4879C103.166 39.7616 103.448 40.0836 103.641 40.4538C103.838 40.8201 103.937 41.2185 103.937 41.6491V48H100.821V46.696H100.749C100.564 47.0421 100.339 47.3219 100.073 47.5352C99.8113 47.7485 99.5115 47.9034 99.1734 48C98.8393 48.0966 98.4711 48.1449 98.0686 48.1449ZM99.1553 46.044C99.4088 46.044 99.6463 45.9917 99.8676 45.8871C100.093 45.7824 100.276 45.6315 100.417 45.4343C100.558 45.2371 100.628 44.9976 100.628 44.7159V43.9432C100.54 43.9794 100.445 44.0136 100.345 44.0458C100.248 44.078 100.143 44.1082 100.031 44.1364C99.922 44.1645 99.8052 44.1907 99.6805 44.2148C99.5597 44.239 99.433 44.2611 99.3002 44.2812C99.0426 44.3215 98.8313 44.3879 98.6663 44.4805C98.5053 44.569 98.3846 44.6797 98.3041 44.8125C98.2276 44.9413 98.1894 45.0862 98.1894 45.2472C98.1894 45.5047 98.2799 45.7019 98.461 45.8388C98.6421 45.9756 98.8735 46.044 99.1553 46.044ZM107.225 51.4773C106.843 51.4773 106.479 51.4471 106.132 51.3867C105.786 51.3304 105.482 51.2519 105.221 51.1513L105.945 48.7848C106.219 48.8814 106.469 48.9438 106.694 48.9719C106.923 49.0001 107.118 48.984 107.279 48.9237C107.444 48.8633 107.563 48.7486 107.636 48.5795L107.708 48.4105L104.448 38.7273H107.925L109.423 45.1506H109.519L111.04 38.7273H114.542L111.161 48.7727C110.992 49.2839 110.747 49.7427 110.425 50.1491C110.107 50.5597 109.688 50.8836 109.169 51.1211C108.65 51.3585 108.002 51.4773 107.225 51.4773ZM123.966 41.7457H120.899C120.883 41.5566 120.816 41.3936 120.7 41.2567C120.583 41.1199 120.432 41.0153 120.247 40.9428C120.066 40.8664 119.864 40.8281 119.643 40.8281C119.357 40.8281 119.112 40.8804 118.907 40.9851C118.701 41.0897 118.601 41.2386 118.605 41.4318C118.601 41.5687 118.659 41.6954 118.78 41.8121C118.905 41.9289 119.144 42.0194 119.498 42.0838L121.382 42.4219C122.332 42.5949 123.038 42.8867 123.501 43.2972C123.968 43.7037 124.203 44.2491 124.207 44.9332C124.203 45.5933 124.006 46.1668 123.615 46.6538C123.229 47.1367 122.7 47.511 122.028 47.7766C121.36 48.0382 120.597 48.169 119.74 48.169C118.323 48.169 117.214 47.8793 116.413 47.2997C115.616 46.7202 115.172 45.9555 115.079 45.0057H118.387C118.432 45.2995 118.577 45.5269 118.822 45.6879C119.072 45.8448 119.386 45.9233 119.764 45.9233C120.07 45.9233 120.321 45.871 120.518 45.7663C120.72 45.6617 120.822 45.5128 120.826 45.3196C120.822 45.1425 120.734 45.0017 120.561 44.897C120.392 44.7924 120.126 44.7079 119.764 44.6435L118.122 44.3537C117.176 44.1887 116.468 43.8748 115.997 43.4119C115.526 42.9491 115.292 42.3535 115.297 41.625C115.292 40.9811 115.462 40.4357 115.804 39.989C116.15 39.5382 116.643 39.1961 117.283 38.9627C117.927 38.7253 118.689 38.6065 119.571 38.6065C120.911 38.6065 121.967 38.8842 122.74 39.4396C123.517 39.995 123.925 40.7637 123.966 41.7457ZM131.014 38.7273V41.142H124.904V38.7273H131.014ZM126.088 36.5057H129.42V45.0178C129.42 45.1465 129.442 45.2552 129.486 45.3438C129.531 45.4283 129.599 45.4927 129.692 45.5369C129.784 45.5772 129.903 45.5973 130.048 45.5973C130.148 45.5973 130.265 45.5852 130.398 45.5611C130.535 45.5369 130.635 45.5168 130.7 45.5007L131.183 47.843C131.034 47.8873 130.82 47.9416 130.543 48.006C130.269 48.0704 129.943 48.1127 129.565 48.1328C128.8 48.1731 128.158 48.0946 127.639 47.8974C127.12 47.6961 126.729 47.3802 126.468 46.9496C126.206 46.5189 126.079 45.9796 126.088 45.3317V36.5057ZM136.741 48.169C135.735 48.169 134.874 47.9698 134.157 47.5714C133.441 47.1689 132.892 46.6095 132.509 45.8931C132.127 45.1727 131.936 44.3376 131.936 43.3878C131.936 42.438 132.127 41.6049 132.509 40.8885C132.892 40.1681 133.441 39.6087 134.157 39.2102C134.874 38.8078 135.735 38.6065 136.741 38.6065C137.747 38.6065 138.609 38.8078 139.325 39.2102C140.041 39.6087 140.591 40.1681 140.973 40.8885C141.355 41.6049 141.547 42.438 141.547 43.3878C141.547 44.3376 141.355 45.1727 140.973 45.8931C140.591 46.6095 140.041 47.1689 139.325 47.5714C138.609 47.9698 137.747 48.169 136.741 48.169ZM136.765 45.706C137.047 45.706 137.291 45.6114 137.496 45.4222C137.701 45.2331 137.86 44.9634 137.973 44.6133C138.085 44.2631 138.142 43.8466 138.142 43.3636C138.142 42.8767 138.085 42.4601 137.973 42.114C137.86 41.7638 137.701 41.4942 137.496 41.305C137.291 41.1159 137.047 41.0213 136.765 41.0213C136.468 41.0213 136.212 41.1159 135.999 41.305C135.785 41.4942 135.622 41.7638 135.51 42.114C135.397 42.4601 135.341 42.8767 135.341 43.3636C135.341 43.8466 135.397 44.2631 135.51 44.6133C135.622 44.9634 135.785 45.2331 135.999 45.4222C136.212 45.6114 136.468 45.706 136.765 45.706ZM142.899 48V38.7273H146.135V40.4901H146.231C146.4 39.8381 146.668 39.3612 147.034 39.0593C147.404 38.7575 147.837 38.6065 148.332 38.6065C148.477 38.6065 148.62 38.6186 148.761 38.6428C148.906 38.6629 149.044 38.6931 149.177 38.7333V41.5767C149.012 41.5204 148.809 41.4781 148.568 41.4499C148.326 41.4218 148.119 41.4077 147.946 41.4077C147.62 41.4077 147.326 41.4821 147.064 41.631C146.807 41.7759 146.604 41.9812 146.455 42.2468C146.306 42.5084 146.231 42.8163 146.231 43.1705V48H142.899ZM154.182 48.169C153.192 48.169 152.339 47.9799 151.622 47.6016C150.91 47.2192 150.361 46.6719 149.974 45.9595C149.592 45.2431 149.401 44.3859 149.401 43.3878C149.401 42.4299 149.594 41.5928 149.98 40.8764C150.367 40.16 150.912 39.6026 151.616 39.2042C152.321 38.8058 153.152 38.6065 154.109 38.6065C154.81 38.6065 155.444 38.7152 156.011 38.9325C156.579 39.1499 157.064 39.4658 157.466 39.8803C157.868 40.2908 158.178 40.7899 158.396 41.3775C158.613 41.9651 158.722 42.6271 158.722 43.3636V44.1364H150.439V42.3011H155.655C155.651 42.0355 155.582 41.8021 155.45 41.6009C155.321 41.3956 155.146 41.2366 154.924 41.1239C154.707 41.0072 154.46 40.9489 154.182 40.9489C153.912 40.9489 153.665 41.0072 153.439 41.1239C153.214 41.2366 153.033 41.3936 152.896 41.5948C152.763 41.796 152.693 42.0315 152.685 42.3011V44.2812C152.685 44.5791 152.747 44.8447 152.872 45.0781C152.997 45.3116 153.176 45.4947 153.409 45.6275C153.643 45.7603 153.924 45.8267 154.254 45.8267C154.484 45.8267 154.693 45.7945 154.882 45.7301C155.075 45.6657 155.24 45.5732 155.377 45.4524C155.514 45.3277 155.615 45.1787 155.679 45.0057H158.722C158.617 45.6496 158.37 46.209 157.979 46.6839C157.589 47.1548 157.072 47.5211 156.428 47.7827C155.788 48.0402 155.039 48.169 154.182 48.169Z" fill="white"/>
<path d="M24.2188 48.7716L24.2188 14.2306C24.219 14.1557 24.2413 14.0825 24.283 14.0202C24.3247 13.9579 24.3838 13.9093 24.453 13.8805C24.5222 13.8516 24.5983 13.8439 24.6719 13.8582C24.7454 13.8725 24.8131 13.9082 24.8665 13.9608L42.8516 31.5002L24.8665 49.0414C24.8131 49.0941 24.7454 49.1297 24.6719 49.144C24.5983 49.1583 24.5222 49.1506 24.453 49.1217C24.3838 49.0929 24.3247 49.0443 24.283 48.982C24.2413 48.9198 24.219 48.8466 24.2188 48.7716V48.7716ZM50.3926 38.7073L27.8416 51.1315L27.8275 51.1394C27.4391 51.3503 27.0699 50.8247 27.3881 50.5189L45.0655 33.6158L50.3926 38.7073ZM27.3898 12.4816C27.0699 12.1757 27.4391 11.6501 27.8293 11.8611L27.8434 11.869L50.3926 24.2932L45.0655 29.3865L27.3898 12.4816ZM59.4963 33.6975L53.1989 37.1657L47.2777 31.5002L53.1989 25.8374L59.4963 29.303C61.2093 30.2495 61.2093 32.7509 59.4963 33.6975Z" fill="white"/>
</svg>
