<svg width="28" height="27" viewBox="0 0 28 27" fill="none" xmlns="http://www.w3.org/2000/svg">
<path d="M23.621 2.97561H4.64347C4.18708 2.97561 3.81836 3.34433 3.81836 3.80072V22.7782C3.81836 23.2346 4.18708 23.6034 4.64347 23.6034H23.621C24.0774 23.6034 24.4461 23.2346 24.4461 22.7782V3.80072C24.4461 3.34433 24.0774 2.97561 23.621 2.97561ZM21.2385 8.99633H19.5908C18.299 8.99633 18.0489 9.61001 18.0489 10.5125V12.5005H21.1328L20.7305 15.6127H18.0489V23.6034H14.8336V15.6153H12.1442V12.5005H14.8336V10.2056C14.8336 7.54207 16.4606 6.0904 18.8379 6.0904C19.9776 6.0904 20.9549 6.17549 21.2411 6.21416V8.99633H21.2385Z" fill="white"/>
</svg>
