<svg width="26" height="26" viewBox="0 0 26 26" fill="none" xmlns="http://www.w3.org/2000/svg">
<path d="M22.3438 2.84375H3.65625C3.20684 2.84375 2.84375 3.20684 2.84375 3.65625V22.3438C2.84375 22.7932 3.20684 23.1562 3.65625 23.1562H22.3438C22.7932 23.1562 23.1562 22.7932 23.1562 22.3438V3.65625C23.1562 3.20684 22.7932 2.84375 22.3438 2.84375ZM17.2402 17.7125C16.2094 18.6621 14.8027 19.2207 13.1244 19.2207C10.6945 19.2207 8.59219 17.8268 7.56895 15.7955C7.13296 14.9281 6.90601 13.9708 6.90625 13C6.90625 11.9945 7.14746 11.0449 7.56895 10.2045C8.59219 8.1707 10.6945 6.77676 13.1244 6.77676C14.8002 6.77676 16.2068 7.39375 17.2859 8.39668L15.5035 10.1816C14.8586 9.56465 14.0385 9.25234 13.127 9.25234C11.507 9.25234 10.1359 10.3467 9.6459 11.8168C9.52148 12.19 9.45039 12.5887 9.45039 13C9.45039 13.4113 9.52148 13.81 9.6459 14.1832C10.1359 15.6533 11.507 16.7477 13.1244 16.7477C13.9623 16.7477 14.6732 16.5268 15.2293 16.1535C15.8895 15.7117 16.3262 15.0541 16.4709 14.2746H13.1244V11.8676H18.982C19.0557 12.2764 19.0938 12.7004 19.0938 13.1396C19.0938 15.0363 18.4158 16.6283 17.2402 17.7125Z" fill="white"/>
</svg>
