<svg width="190" height="64" viewBox="0 0 190 64" fill="none" xmlns="http://www.w3.org/2000/svg">
<path d="M0 15C0 6.71573 6.71573 0 15 0H175C183.284 0 190 6.71573 190 15V49C190 57.2843 183.284 64 175 64H15C6.71573 64 0 57.2843 0 49V15Z" fill="#222526"/>
<path d="M87.9489 18.5C87.8161 18.0935 87.641 17.7293 87.4237 17.4073C87.2103 17.0813 86.9548 16.8036 86.657 16.5742C86.3632 16.3448 86.0291 16.1697 85.6548 16.049C85.2805 15.9283 84.87 15.8679 84.4233 15.8679C83.6908 15.8679 83.0247 16.0571 82.4251 16.4354C81.8254 16.8137 81.3485 17.3711 80.9943 18.1076C80.6402 18.8441 80.4631 19.7476 80.4631 20.8182C80.4631 21.8887 80.6422 22.7923 81.0004 23.5288C81.3585 24.2653 81.8435 24.8227 82.4553 25.201C83.067 25.5793 83.7552 25.7685 84.5199 25.7685C85.2282 25.7685 85.852 25.6175 86.3913 25.3157C86.9347 25.0098 87.3572 24.5792 87.6591 24.0238C87.965 23.4644 88.1179 22.8063 88.1179 22.0497L88.5767 22.1463H84.858V20.8182H89.5668V22.1463C89.5668 23.1645 89.3494 24.05 88.9148 24.8026C88.4841 25.5552 87.8885 26.1387 87.1278 26.5533C86.3712 26.9638 85.5019 27.169 84.5199 27.169C83.4252 27.169 82.4633 26.9115 81.6342 26.3963C80.8092 25.8812 80.1652 25.1487 79.7024 24.1989C79.2436 23.2491 79.0142 22.1222 79.0142 20.8182C79.0142 19.8402 79.145 18.9608 79.4066 18.18C79.6722 17.3952 80.0465 16.7272 80.5295 16.1758C81.0124 15.6244 81.5839 15.2018 82.244 14.908C82.904 14.6142 83.6304 14.4673 84.4233 14.4673C85.0753 14.4673 85.683 14.5659 86.2464 14.7631C86.8139 14.9563 87.319 15.232 87.7617 15.5902C88.2085 15.9444 88.5807 16.369 88.8786 16.864C89.1764 17.355 89.3816 17.9003 89.4943 18.5H87.9489ZM95.8256 27.1932C94.9321 27.1932 94.1614 26.996 93.5134 26.6016C92.8695 26.2031 92.3724 25.6477 92.0223 24.9354C91.6762 24.219 91.5031 23.3859 91.5031 22.4361C91.5031 21.4863 91.6762 20.6491 92.0223 19.9247C92.3724 19.1963 92.8594 18.6288 93.4832 18.2223C94.1111 17.8118 94.8435 17.6065 95.6807 17.6065C96.1636 17.6065 96.6405 17.687 97.1114 17.848C97.5823 18.009 98.0109 18.2706 98.3973 18.6328C98.7836 18.991 99.0915 19.4659 99.3209 20.0575C99.5503 20.6491 99.665 21.3776 99.665 22.2429V22.8466H92.5173V21.6151H98.2162C98.2162 21.0919 98.1115 20.625 97.9023 20.2145C97.697 19.804 97.4032 19.48 97.0209 19.2425C96.6425 19.0051 96.1958 18.8864 95.6807 18.8864C95.1132 18.8864 94.6222 19.0272 94.2077 19.3089C93.7971 19.5866 93.4812 19.9489 93.2599 20.3956C93.0385 20.8423 92.9278 21.3213 92.9278 21.8324V22.6534C92.9278 23.3537 93.0486 23.9473 93.29 24.4343C93.5355 24.9173 93.8756 25.2855 94.3103 25.5391C94.7449 25.7886 95.25 25.9134 95.8256 25.9134C96.1998 25.9134 96.5379 25.861 96.8398 25.7564C97.1456 25.6477 97.4092 25.4867 97.6306 25.2734C97.8519 25.0561 98.023 24.7865 98.1437 24.4645L99.5202 24.8509C99.3753 25.3177 99.1318 25.7282 98.7897 26.0824C98.4476 26.4325 98.025 26.7062 97.5219 26.9034C97.0189 27.0966 96.4534 27.1932 95.8256 27.1932ZM105.865 17.7273V18.9347H101.06V17.7273H105.865ZM102.46 15.5057H103.885V24.3438C103.885 24.7462 103.943 25.0481 104.06 25.2493C104.181 25.4465 104.334 25.5793 104.519 25.6477C104.708 25.7121 104.907 25.7443 105.116 25.7443C105.273 25.7443 105.402 25.7363 105.503 25.7202C105.603 25.7 105.684 25.6839 105.744 25.6719L106.034 26.9517C105.937 26.9879 105.803 27.0241 105.63 27.0604C105.456 27.1006 105.237 27.1207 104.972 27.1207C104.569 27.1207 104.175 27.0342 103.788 26.8612C103.406 26.6881 103.088 26.4245 102.834 26.0703C102.585 25.7161 102.46 25.2694 102.46 24.7301V15.5057ZM112.789 27V17.7273H114.214V27H112.789ZM113.514 16.1818C113.236 16.1818 112.997 16.0872 112.795 15.8981C112.598 15.7089 112.5 15.4815 112.5 15.2159C112.5 14.9503 112.598 14.7229 112.795 14.5337C112.997 14.3446 113.236 14.25 113.514 14.25C113.791 14.25 114.029 14.3446 114.226 14.5337C114.427 14.7229 114.528 14.9503 114.528 15.2159C114.528 15.4815 114.427 15.7089 114.226 15.8981C114.029 16.0872 113.791 16.1818 113.514 16.1818ZM120.856 17.7273V18.9347H116.051V17.7273H120.856ZM117.451 15.5057H118.876V24.3438C118.876 24.7462 118.934 25.0481 119.051 25.2493C119.172 25.4465 119.325 25.5793 119.51 25.6477C119.699 25.7121 119.898 25.7443 120.108 25.7443C120.265 25.7443 120.393 25.7363 120.494 25.7202C120.595 25.7 120.675 25.6839 120.735 25.6719L121.025 26.9517C120.929 26.9879 120.794 27.0241 120.621 27.0604C120.448 27.1006 120.228 27.1207 119.963 27.1207C119.56 27.1207 119.166 27.0342 118.779 26.8612C118.397 26.6881 118.079 26.4245 117.826 26.0703C117.576 25.7161 117.451 25.2694 117.451 24.7301V15.5057ZM131.548 27.1932C130.71 27.1932 129.976 26.994 129.344 26.5955C128.716 26.1971 128.225 25.6397 127.871 24.9233C127.521 24.2069 127.346 23.3698 127.346 22.4119C127.346 21.446 127.521 20.6029 127.871 19.8825C128.225 19.162 128.716 18.6026 129.344 18.2042C129.976 17.8058 130.71 17.6065 131.548 17.6065C132.385 17.6065 133.117 17.8058 133.745 18.2042C134.377 18.6026 134.868 19.162 135.218 19.8825C135.572 20.6029 135.749 21.446 135.749 22.4119C135.749 23.3698 135.572 24.2069 135.218 24.9233C134.868 25.6397 134.377 26.1971 133.745 26.5955C133.117 26.994 132.385 27.1932 131.548 27.1932ZM131.548 25.9134C132.183 25.9134 132.707 25.7504 133.117 25.4244C133.528 25.0984 133.832 24.6697 134.029 24.1385C134.226 23.6072 134.325 23.0317 134.325 22.4119C134.325 21.7921 134.226 21.2146 134.029 20.6793C133.832 20.1441 133.528 19.7114 133.117 19.3814C132.707 19.0514 132.183 18.8864 131.548 18.8864C130.912 18.8864 130.388 19.0514 129.978 19.3814C129.567 19.7114 129.264 20.1441 129.066 20.6793C128.869 21.2146 128.771 21.7921 128.771 22.4119C128.771 23.0317 128.869 23.6072 129.066 24.1385C129.264 24.6697 129.567 25.0984 129.978 25.4244C130.388 25.7504 130.912 25.9134 131.548 25.9134ZM139.349 21.4219V27H137.924V17.7273H139.301V19.1761H139.421C139.639 18.7053 139.969 18.3269 140.411 18.0412C140.854 17.7514 141.426 17.6065 142.126 17.6065C142.754 17.6065 143.303 17.7353 143.774 17.9929C144.245 18.2464 144.611 18.6328 144.873 19.152C145.134 19.6671 145.265 20.3191 145.265 21.108V27H143.84V21.2045C143.84 20.4761 143.651 19.9086 143.273 19.5021C142.895 19.0916 142.375 18.8864 141.715 18.8864C141.261 18.8864 140.854 18.985 140.496 19.1822C140.142 19.3794 139.862 19.6671 139.657 20.0455C139.451 20.4238 139.349 20.8826 139.349 21.4219ZM78.7969 48V35.6364H84.1335C85.0511 35.6364 85.854 35.8175 86.5423 36.1797C87.2305 36.5419 87.7657 37.051 88.1481 37.707C88.5304 38.363 88.7216 39.1297 88.7216 40.0071C88.7216 40.8925 88.5244 41.6592 88.13 42.3072C87.7396 42.9551 87.1902 43.4542 86.4819 43.8043C85.7776 44.1545 84.9545 44.3295 84.0128 44.3295H80.8253V41.7216H83.3366C83.7311 41.7216 84.0671 41.6532 84.3448 41.5163C84.6265 41.3755 84.8419 41.1763 84.9908 40.9187C85.1437 40.6611 85.2202 40.3572 85.2202 40.0071C85.2202 39.6529 85.1437 39.3511 84.9908 39.1016C84.8419 38.848 84.6265 38.6548 84.3448 38.522C84.0671 38.3852 83.7311 38.3168 83.3366 38.3168H82.1534V48H78.7969ZM93.3338 35.6364V48H90.0014V35.6364H93.3338ZM97.6155 48.1449C97.0239 48.1449 96.5007 48.0483 96.0459 47.8551C95.5951 47.6579 95.241 47.3601 94.9834 46.9616C94.7258 46.5632 94.597 46.0561 94.597 45.4403C94.597 44.9332 94.6836 44.5006 94.8566 44.1424C95.0297 43.7802 95.2712 43.4844 95.5811 43.255C95.891 43.0256 96.2512 42.8505 96.6617 42.7298C97.0762 42.609 97.5229 42.5305 98.0019 42.4943C98.521 42.4541 98.9376 42.4058 99.2515 42.3494C99.5695 42.2891 99.7989 42.2066 99.9397 42.1019C100.081 41.9933 100.151 41.8504 100.151 41.6733V41.6491C100.151 41.4077 100.058 41.2225 99.8733 41.0938C99.6882 40.965 99.4507 40.9006 99.161 40.9006C98.843 40.9006 98.5834 40.971 98.3822 41.1119C98.185 41.2487 98.0663 41.46 98.026 41.7457H94.9593C94.9995 41.1823 95.1786 40.6631 95.4965 40.1882C95.8185 39.7093 96.2874 39.3269 96.9031 39.0412C97.5189 38.7514 98.2876 38.6065 99.2093 38.6065C99.8733 38.6065 100.469 38.685 100.996 38.842C101.523 38.9949 101.972 39.2102 102.342 39.4879C102.713 39.7616 102.994 40.0836 103.188 40.4538C103.385 40.8201 103.483 41.2185 103.483 41.6491V48H100.368V46.696H100.296C100.111 47.0421 99.8854 47.3219 99.6198 47.5352C99.3582 47.7485 99.0583 47.9034 98.7203 48C98.3862 48.0966 98.018 48.1449 97.6155 48.1449ZM98.7021 46.044C98.9557 46.044 99.1932 45.9917 99.4145 45.8871C99.6399 45.7824 99.823 45.6315 99.9639 45.4343C100.105 45.2371 100.175 44.9976 100.175 44.7159V43.9432C100.087 43.9794 99.992 44.0136 99.8914 44.0458C99.7948 44.078 99.6902 44.1082 99.5775 44.1364C99.4688 44.1645 99.3521 44.1907 99.2274 44.2148C99.1066 44.239 98.9798 44.2611 98.847 44.2812C98.5895 44.3215 98.3782 44.3879 98.2132 44.4805C98.0522 44.569 97.9314 44.6797 97.8509 44.8125C97.7745 44.9413 97.7362 45.0862 97.7362 45.2472C97.7362 45.5047 97.8268 45.7019 98.0079 45.8388C98.189 45.9756 98.4204 46.044 98.7021 46.044ZM106.772 51.4773C106.39 51.4773 106.025 51.4471 105.679 51.3867C105.333 51.3304 105.029 51.2519 104.768 51.1513L105.492 48.7848C105.766 48.8814 106.015 48.9438 106.241 48.9719C106.47 49.0001 106.665 48.984 106.826 48.9237C106.991 48.8633 107.11 48.7486 107.183 48.5795L107.255 48.4105L103.995 38.7273H107.472L108.969 45.1506H109.066L110.587 38.7273H114.089L110.708 48.7727C110.539 49.2839 110.294 49.7427 109.972 50.1491C109.654 50.5597 109.235 50.8836 108.716 51.1211C108.197 51.3585 107.549 51.4773 106.772 51.4773ZM123.512 41.7457H120.446C120.43 41.5566 120.363 41.3936 120.246 41.2567C120.13 41.1199 119.979 41.0153 119.794 40.9428C119.613 40.8664 119.411 40.8281 119.19 40.8281C118.904 40.8281 118.659 40.8804 118.453 40.9851C118.248 41.0897 118.148 41.2386 118.152 41.4318C118.148 41.5687 118.206 41.6954 118.327 41.8121C118.451 41.9289 118.691 42.0194 119.045 42.0838L120.929 42.4219C121.878 42.5949 122.585 42.8867 123.048 43.2972C123.514 43.7037 123.75 44.2491 123.754 44.9332C123.75 45.5933 123.553 46.1668 123.162 46.6538C122.776 47.1367 122.247 47.511 121.575 47.7766C120.906 48.0382 120.144 48.169 119.287 48.169C117.87 48.169 116.761 47.8793 115.96 47.2997C115.163 46.7202 114.719 45.9555 114.626 45.0057H117.934C117.979 45.2995 118.123 45.5269 118.369 45.6879C118.618 45.8448 118.932 45.9233 119.311 45.9233C119.617 45.9233 119.868 45.871 120.065 45.7663C120.267 45.6617 120.369 45.5128 120.373 45.3196C120.369 45.1425 120.281 45.0017 120.108 44.897C119.939 44.7924 119.673 44.7079 119.311 44.6435L117.669 44.3537C116.723 44.1887 116.015 43.8748 115.544 43.4119C115.073 42.9491 114.839 42.3535 114.843 41.625C114.839 40.9811 115.008 40.4357 115.35 39.989C115.697 39.5382 116.19 39.1961 116.83 38.9627C117.473 38.7253 118.236 38.6065 119.118 38.6065C120.458 38.6065 121.514 38.8842 122.287 39.4396C123.064 39.995 123.472 40.7637 123.512 41.7457ZM130.561 38.7273V41.142H124.451V38.7273H130.561ZM125.634 36.5057H128.967V45.0178C128.967 45.1465 128.989 45.2552 129.033 45.3438C129.077 45.4283 129.146 45.4927 129.238 45.5369C129.331 45.5772 129.45 45.5973 129.595 45.5973C129.695 45.5973 129.812 45.5852 129.945 45.5611C130.082 45.5369 130.182 45.5168 130.247 45.5007L130.73 47.843C130.581 47.8873 130.367 47.9416 130.09 48.006C129.816 48.0704 129.49 48.1127 129.112 48.1328C128.347 48.1731 127.705 48.0946 127.186 47.8974C126.667 47.6961 126.276 47.3802 126.015 46.9496C125.753 46.5189 125.626 45.9796 125.634 45.3317V36.5057ZM136.288 48.169C135.282 48.169 134.421 47.9698 133.704 47.5714C132.988 47.1689 132.439 46.6095 132.056 45.8931C131.674 45.1727 131.483 44.3376 131.483 43.3878C131.483 42.438 131.674 41.6049 132.056 40.8885C132.439 40.1681 132.988 39.6087 133.704 39.2102C134.421 38.8078 135.282 38.6065 136.288 38.6065C137.294 38.6065 138.156 38.8078 138.872 39.2102C139.588 39.6087 140.138 40.1681 140.52 40.8885C140.902 41.6049 141.093 42.438 141.093 43.3878C141.093 44.3376 140.902 45.1727 140.52 45.8931C140.138 46.6095 139.588 47.1689 138.872 47.5714C138.156 47.9698 137.294 48.169 136.288 48.169ZM136.312 45.706C136.594 45.706 136.837 45.6114 137.043 45.4222C137.248 45.2331 137.407 44.9634 137.52 44.6133C137.632 44.2631 137.689 43.8466 137.689 43.3636C137.689 42.8767 137.632 42.4601 137.52 42.114C137.407 41.7638 137.248 41.4942 137.043 41.305C136.837 41.1159 136.594 41.0213 136.312 41.0213C136.014 41.0213 135.759 41.1159 135.546 41.305C135.332 41.4942 135.169 41.7638 135.057 42.114C134.944 42.4601 134.888 42.8767 134.888 43.3636C134.888 43.8466 134.944 44.2631 135.057 44.6133C135.169 44.9634 135.332 45.2331 135.546 45.4222C135.759 45.6114 136.014 45.706 136.312 45.706ZM142.446 48V38.7273H145.682V40.4901H145.778C145.947 39.8381 146.215 39.3612 146.581 39.0593C146.951 38.7575 147.384 38.6065 147.879 38.6065C148.024 38.6065 148.167 38.6186 148.308 38.6428C148.453 38.6629 148.591 38.6931 148.724 38.7333V41.5767C148.559 41.5204 148.356 41.4781 148.114 41.4499C147.873 41.4218 147.666 41.4077 147.493 41.4077C147.167 41.4077 146.873 41.4821 146.611 41.631C146.354 41.7759 146.15 41.9812 146.002 42.2468C145.853 42.5084 145.778 42.8163 145.778 43.1705V48H142.446ZM153.729 48.169C152.739 48.169 151.886 47.9799 151.169 47.6016C150.457 47.2192 149.907 46.6719 149.521 45.9595C149.139 45.2431 148.948 44.3859 148.948 43.3878C148.948 42.4299 149.141 41.5928 149.527 40.8764C149.913 40.16 150.459 39.6026 151.163 39.2042C151.867 38.8058 152.698 38.6065 153.656 38.6065C154.357 38.6065 154.991 38.7152 155.558 38.9325C156.125 39.1499 156.61 39.4658 157.013 39.8803C157.415 40.2908 157.725 40.7899 157.943 41.3775C158.16 41.9651 158.269 42.6271 158.269 43.3636V44.1364H149.986V42.3011H155.202C155.198 42.0355 155.129 41.8021 154.997 41.6009C154.868 41.3956 154.693 41.2366 154.471 41.1239C154.254 41.0072 154.006 40.9489 153.729 40.9489C153.459 40.9489 153.212 41.0072 152.986 41.1239C152.761 41.2366 152.58 41.3936 152.443 41.5948C152.31 41.796 152.24 42.0315 152.232 42.3011V44.2812C152.232 44.5791 152.294 44.8447 152.419 45.0781C152.544 45.3116 152.723 45.4947 152.956 45.6275C153.189 45.7603 153.471 45.8267 153.801 45.8267C154.031 45.8267 154.24 45.7945 154.429 45.7301C154.622 45.6657 154.787 45.5732 154.924 45.4524C155.061 45.3277 155.162 45.1787 155.226 45.0057H158.269C158.164 45.6496 157.916 46.209 157.526 46.6839C157.136 47.1548 156.618 47.5211 155.975 47.7827C155.335 48.0402 154.586 48.169 153.729 48.169Z" fill="white"/>
<path d="M49.0916 29.8289C49.072 26.6321 50.5848 24.2229 53.6396 22.4464C51.9311 20.1027 49.3462 18.8137 45.9388 18.5653C42.7126 18.3215 39.1828 20.3652 37.8904 20.3652C36.5245 20.3652 33.401 18.6496 30.9434 18.6496C25.8715 18.7246 20.4814 22.5214 20.4814 30.2461C20.4814 32.5288 20.9172 34.8865 21.7886 37.3145C22.9537 40.5113 27.1542 48.3438 31.5358 48.2172C33.827 48.1657 35.4474 46.661 38.4289 46.661C41.3222 46.661 42.8203 48.2172 45.3758 48.2172C49.7966 48.1563 53.5956 41.0363 54.702 37.8301C48.7734 35.1537 49.0916 29.9929 49.0916 29.8289V29.8289ZM43.9463 15.5326C46.4284 12.7108 46.2032 10.1422 46.1297 9.21875C43.9365 9.34062 41.4005 10.6484 39.9563 12.2561C38.3652 13.9811 37.4302 16.1138 37.6309 18.5184C40.0004 18.6918 42.1642 17.5247 43.9463 15.5326V15.5326Z" fill="white"/>
</svg>
