<svg width="28" height="31" viewBox="0 0 28 31" fill="none" xmlns="http://www.w3.org/2000/svg">
<path d="M27.7801 21.828L24.7948 16.3166V10.5781C24.7948 4.84872 20.1336 0.1875 14.4042 0.1875C8.67477 0.1875 4.01355 4.84872 4.01355 10.5781V16.3166L1.02816 21.8279C0.892775 22.0778 0.824635 22.3586 0.830418 22.6428C0.8362 22.9269 0.915706 23.2047 1.06114 23.4489C1.20658 23.6931 1.41297 23.8953 1.66007 24.0357C1.90718 24.1762 2.18652 24.25 2.47075 24.25H8.41357C8.39699 24.4318 8.38862 24.6143 8.38848 24.7969C8.38848 26.3923 9.02227 27.9224 10.1504 29.0506C11.2786 30.1787 12.8087 30.8125 14.4041 30.8125C15.9995 30.8125 17.5296 30.1787 18.6578 29.0506C19.7859 27.9224 20.4197 26.3923 20.4197 24.7969C20.4197 24.6123 20.4109 24.4302 20.3946 24.25H26.3375C26.6217 24.25 26.901 24.1761 27.148 24.0357C27.3951 23.8952 27.6015 23.693 27.7469 23.4488C27.8923 23.2046 27.9718 22.9269 27.9776 22.6428C27.9833 22.3586 27.9152 22.0778 27.7798 21.828H27.7801ZM18.2323 24.7969C18.2327 25.323 18.1247 25.8435 17.915 26.3259C17.7053 26.8084 17.3984 27.2425 17.0135 27.6011C16.6285 27.9597 16.1738 28.2351 15.6777 28.4101C15.1816 28.5851 14.6547 28.656 14.13 28.6183C13.6053 28.5806 13.094 28.4352 12.6279 28.1911C12.1619 27.947 11.7512 27.6095 11.4215 27.1996C11.0917 26.7897 10.85 26.3162 10.7113 25.8087C10.5727 25.3012 10.5402 24.7706 10.6158 24.25H18.1925C18.2188 24.4311 18.2321 24.6139 18.2323 24.7969V24.7969ZM3.38888 22.0625L6.20105 16.8709V10.5781C6.20105 8.40252 7.06531 6.31602 8.60369 4.77764C10.1421 3.23926 12.2286 2.375 14.4042 2.375C16.5798 2.375 18.6663 3.23926 20.2047 4.77764C21.743 6.31602 22.6073 8.40252 22.6073 10.5781V16.8709L25.4193 22.0625H3.38888Z" fill="white"/>
</svg>
