<svg width="33" height="33" viewBox="0 0 33 33" fill="none" xmlns="http://www.w3.org/2000/svg">
<path d="M0 1.09424C0 0.804158 0.115234 0.525958 0.320352 0.32084C0.52547 0.115722 0.803669 0.000488281 1.09375 0.000488281H4.375C4.61897 0.000555681 4.85592 0.0821929 5.04816 0.232417C5.2404 0.382642 5.3769 0.592828 5.43594 0.829551L6.32188 4.37549H31.7188C31.8793 4.37564 32.0379 4.41115 32.1833 4.47951C32.3286 4.54786 32.4571 4.64738 32.5596 4.771C32.6621 4.89461 32.7362 5.03929 32.7765 5.19475C32.8168 5.3502 32.8224 5.51263 32.7928 5.67049L29.5116 23.1705C29.4646 23.4211 29.3316 23.6475 29.1355 23.8105C28.9394 23.9734 28.6925 24.0628 28.4375 24.063H8.75C8.49501 24.0628 8.24811 23.9734 8.05199 23.8105C7.85587 23.6475 7.72286 23.4211 7.67594 23.1705L4.39687 5.7033L3.52188 2.18799H1.09375C0.803669 2.18799 0.52547 2.07275 0.320352 1.86764C0.115234 1.66252 0 1.38432 0 1.09424ZM6.78562 6.56299L9.65781 21.8755H27.5297L30.4019 6.56299H6.78562ZM10.9375 24.063C9.77718 24.063 8.66438 24.5239 7.84391 25.3444C7.02344 26.1649 6.5625 27.2777 6.5625 28.438C6.5625 29.5983 7.02344 30.7111 7.84391 31.5316C8.66438 32.3521 9.77718 32.813 10.9375 32.813C12.0978 32.813 13.2106 32.3521 14.0311 31.5316C14.8516 30.7111 15.3125 29.5983 15.3125 28.438C15.3125 27.2777 14.8516 26.1649 14.0311 25.3444C13.2106 24.5239 12.0978 24.063 10.9375 24.063ZM26.25 24.063C25.0897 24.063 23.9769 24.5239 23.1564 25.3444C22.3359 26.1649 21.875 27.2777 21.875 28.438C21.875 29.5983 22.3359 30.7111 23.1564 31.5316C23.9769 32.3521 25.0897 32.813 26.25 32.813C27.4103 32.813 28.5231 32.3521 29.3436 31.5316C30.1641 30.7111 30.625 29.5983 30.625 28.438C30.625 27.2777 30.1641 26.1649 29.3436 25.3444C28.5231 24.5239 27.4103 24.063 26.25 24.063ZM10.9375 26.2505C11.5177 26.2505 12.0741 26.481 12.4843 26.8912C12.8945 27.3014 13.125 27.8578 13.125 28.438C13.125 29.0181 12.8945 29.5745 12.4843 29.9848C12.0741 30.395 11.5177 30.6255 10.9375 30.6255C10.3573 30.6255 9.80094 30.395 9.3907 29.9848C8.98047 29.5745 8.75 29.0181 8.75 28.438C8.75 27.8578 8.98047 27.3014 9.3907 26.8912C9.80094 26.481 10.3573 26.2505 10.9375 26.2505ZM26.25 26.2505C26.8302 26.2505 27.3866 26.481 27.7968 26.8912C28.207 27.3014 28.4375 27.8578 28.4375 28.438C28.4375 29.0181 28.207 29.5745 27.7968 29.9848C27.3866 30.395 26.8302 30.6255 26.25 30.6255C25.6698 30.6255 25.1134 30.395 24.7032 29.9848C24.293 29.5745 24.0625 29.0181 24.0625 28.438C24.0625 27.8578 24.293 27.3014 24.7032 26.8912C25.1134 26.481 25.6698 26.2505 26.25 26.2505Z" fill="white"/>
</svg>
