<svg width="25" height="25" viewBox="0 0 25 25" fill="none" xmlns="http://www.w3.org/2000/svg">
<path d="M1.38893 1.38991C1.54278 1.23566 1.72555 1.11329 1.92677 1.02979C2.12799 0.946298 2.3437 0.90332 2.56155 0.90332C2.77941 0.90332 2.99512 0.946298 3.19634 1.02979C3.39756 1.11329 3.58033 1.23566 3.73418 1.38991L12.4991 10.1581L21.2639 1.38991C21.4179 1.23591 21.6007 1.11376 21.8019 1.03042C22.0031 0.947082 22.2188 0.904187 22.4366 0.904187C22.6543 0.904187 22.87 0.947082 23.0712 1.03042C23.2724 1.11376 23.4552 1.23591 23.6092 1.38991C23.7632 1.5439 23.8853 1.72671 23.9687 1.92791C24.052 2.12911 24.0949 2.34475 24.0949 2.56253C24.0949 2.78031 24.052 2.99595 23.9687 3.19715C23.8853 3.39835 23.7632 3.58116 23.6092 3.73516L14.841 12.5L23.6092 21.2649C23.7632 21.4189 23.8853 21.6017 23.9687 21.8029C24.052 22.0041 24.0949 22.2198 24.0949 22.4375C24.0949 22.6553 24.052 22.871 23.9687 23.0722C23.8853 23.2734 23.7632 23.4562 23.6092 23.6102C23.4552 23.7641 23.2724 23.8863 23.0712 23.9696C22.87 24.053 22.6543 24.0959 22.4366 24.0959C22.2188 24.0959 22.0031 24.053 21.8019 23.9696C21.6007 23.8863 21.4179 23.7641 21.2639 23.6102L12.4991 14.842L3.73418 23.6102C3.58019 23.7641 3.39737 23.8863 3.19617 23.9696C2.99498 24.053 2.77933 24.0959 2.56155 24.0959C2.34378 24.0959 2.12813 24.053 1.92693 23.9696C1.72573 23.8863 1.54292 23.7641 1.38893 23.6102C1.23494 23.4562 1.11278 23.2734 1.02944 23.0722C0.946105 22.871 0.903211 22.6553 0.903211 22.4375C0.903211 22.2198 0.946105 22.0041 1.02944 21.8029C1.11278 21.6017 1.23494 21.4189 1.38893 21.2649L10.1571 12.5L1.38893 3.73516C1.23469 3.5813 1.11231 3.39854 1.02882 3.19732C0.945321 2.9961 0.902344 2.78038 0.902344 2.56253C0.902344 2.34468 0.945321 2.12896 1.02882 1.92774C1.11231 1.72653 1.23469 1.54376 1.38893 1.38991Z" fill="white"/>
</svg>
