<svg width="44" height="43" viewBox="0 0 44 43" fill="none" xmlns="http://www.w3.org/2000/svg">
<path d="M41.4062 0.796875H2.59375C1.66035 0.796875 0.90625 1.53701 0.90625 2.45312V40.5469C0.90625 41.463 1.66035 42.2031 2.59375 42.2031H41.4062C42.3396 42.2031 43.0938 41.463 43.0938 40.5469V2.45312C43.0938 1.53701 42.3396 0.796875 41.4062 0.796875ZM36.5336 12.8823H33.1639C30.5219 12.8823 30.0104 14.1142 30.0104 15.9257V19.9162H36.3174L35.4947 26.1634H30.0104V42.2031H23.4344V26.1686H17.9342V19.9162H23.4344V15.3098C23.4344 9.96318 26.7619 7.04922 31.624 7.04922C33.9549 7.04922 35.9535 7.22002 36.5389 7.29766V12.8823H36.5336Z" fill="#3B5998"/>
</svg>
