<svg width="34" height="33" viewBox="0 0 34 33" fill="none" xmlns="http://www.w3.org/2000/svg">
<path fill-rule="evenodd" clip-rule="evenodd" d="M15.4889 0.822383C11.6942 0.822383 8.05491 2.29899 5.37167 4.92737C2.68842 7.55576 1.18099 11.1206 1.18099 14.8377C1.18099 18.5548 2.68842 22.1196 5.37167 24.748C8.05491 27.3764 11.6942 28.853 15.4889 28.853C19.2787 28.853 22.9136 27.3801 25.5959 24.758C25.6011 24.752 25.6066 24.7461 25.6124 24.7404C25.618 24.735 25.6238 24.7298 25.6297 24.7248C28.2981 22.0987 29.7967 18.5439 29.7967 14.8377C29.7967 11.1206 28.2893 7.55576 25.6061 4.92737C22.9228 2.29899 19.2835 0.822383 15.4889 0.822383ZM26.2293 24.9414C28.89 22.2276 30.3801 18.6079 30.3801 14.8377C30.3801 10.9691 28.8112 7.25887 26.0185 4.52333C23.2259 1.78779 19.4383 0.250977 15.4889 0.250977C11.5395 0.250977 7.75183 1.78779 4.95919 4.52333C2.16655 7.25887 0.597656 10.9691 0.597656 14.8377C0.597656 18.7063 2.16655 22.4165 4.95919 25.1521C7.75183 27.8876 11.5395 29.4244 15.4889 29.4244C19.3441 29.4244 23.0452 27.96 25.8171 25.3457L33.3172 32.7055C33.431 32.8172 33.6156 32.8173 33.7296 32.7059C33.8436 32.5944 33.8438 32.4135 33.73 32.3018L26.2293 24.9414Z" fill="black"/>
</svg>
