<svg width="33" height="33" viewBox="0 0 33 33" fill="none" xmlns="http://www.w3.org/2000/svg">
<path d="M16.2598 0.216309C7.40028 0.216309 0.209961 7.42048 0.209961 16.297C0.209961 25.1736 7.40028 32.3778 16.2598 32.3778C25.1193 32.3778 32.3096 25.1736 32.3096 16.297C32.3096 7.42048 25.1193 0.216309 16.2598 0.216309ZM16.2598 6.6486C19.3574 6.6486 21.8772 9.17327 21.8772 12.2769C21.8772 15.3804 19.3574 17.9051 16.2598 17.9051C13.1622 17.9051 10.6423 15.3804 10.6423 12.2769C10.6423 9.17327 13.1622 6.6486 16.2598 6.6486ZM16.2598 29.1616C13.0017 29.1616 9.14971 27.843 6.40519 24.5304C9.21648 22.3204 12.6865 21.1193 16.2598 21.1193C19.8331 21.1193 23.3031 22.3204 26.1144 24.5304C23.3698 27.843 19.5179 29.1616 16.2598 29.1616Z" fill="white"/>
</svg>
